<mxfile host="app.diagrams.net" modified="2020-10-11T09:43:49.921Z" agent="5.0 (Macintosh; Intel Mac OS X 10_14_6) AppleWebKit/537.36 (KHTML, like Gecko) Chrome/86.0.4240.75 Safari/537.36" etag="64gLb_OD3vWWYA_1XO5l" version="13.7.9" type="github">
  <diagram name="Page-1" id="74e2e168-ea6b-b213-b513-2b3c1d86103e">
    <mxGraphModel dx="925" dy="496" grid="1" gridSize="10" guides="1" tooltips="1" connect="1" arrows="1" fold="1" page="1" pageScale="1" pageWidth="1100" pageHeight="850" background="#ffffff" math="0" shadow="0">
      <root>
        <mxCell id="0" />
        <mxCell id="1" parent="0" />
        <mxCell id="77e6c97f196da883-1" value="Plagiarsm Checker" style="swimlane;html=1;childLayout=stackLayout;startSize=20;rounded=0;shadow=0;labelBackgroundColor=none;strokeWidth=1;fontFamily=Verdana;fontSize=8;align=center;" parent="1" vertex="1">
          <mxGeometry x="70" y="40" width="730" height="540" as="geometry" />
        </mxCell>
        <mxCell id="77e6c97f196da883-2" value="Manager Views" style="swimlane;html=1;startSize=20;" parent="77e6c97f196da883-1" vertex="1">
          <mxGeometry y="20" width="220" height="520" as="geometry" />
        </mxCell>
        <mxCell id="hQBVEZxTqYiChy97dM1Z-4" value="select the paper that the manager wants to check for plagiarism." style="whiteSpace=wrap;html=1;" vertex="1" parent="77e6c97f196da883-2">
          <mxGeometry x="50" y="130" width="120" height="60" as="geometry" />
        </mxCell>
        <mxCell id="hQBVEZxTqYiChy97dM1Z-3" value="Start" style="ellipse;whiteSpace=wrap;html=1;" vertex="1" parent="77e6c97f196da883-2">
          <mxGeometry x="50" y="50" width="120" height="40" as="geometry" />
        </mxCell>
        <mxCell id="hQBVEZxTqYiChy97dM1Z-5" value="" style="edgeStyle=orthogonalEdgeStyle;rounded=0;orthogonalLoop=1;jettySize=auto;html=1;" edge="1" parent="77e6c97f196da883-2" source="hQBVEZxTqYiChy97dM1Z-3" target="hQBVEZxTqYiChy97dM1Z-4">
          <mxGeometry relative="1" as="geometry" />
        </mxCell>
        <mxCell id="hQBVEZxTqYiChy97dM1Z-29" value="results" style="shape=parallelogram;perimeter=parallelogramPerimeter;whiteSpace=wrap;html=1;fixedSize=1;" vertex="1" parent="77e6c97f196da883-2">
          <mxGeometry x="50" y="385" width="120" height="30" as="geometry" />
        </mxCell>
        <mxCell id="77e6c97f196da883-3" value="Controller" style="swimlane;html=1;startSize=20;" parent="77e6c97f196da883-1" vertex="1">
          <mxGeometry x="220" y="20" width="160" height="520" as="geometry" />
        </mxCell>
        <mxCell id="hQBVEZxTqYiChy97dM1Z-8" value="get papers queue" style="shape=parallelogram;perimeter=parallelogramPerimeter;whiteSpace=wrap;html=1;fixedSize=1;" vertex="1" parent="77e6c97f196da883-3">
          <mxGeometry x="20" y="130" width="120" height="60" as="geometry" />
        </mxCell>
        <mxCell id="hQBVEZxTqYiChy97dM1Z-11" value="" style="edgeStyle=orthogonalEdgeStyle;rounded=0;orthogonalLoop=1;jettySize=auto;html=1;" edge="1" parent="77e6c97f196da883-3" source="hQBVEZxTqYiChy97dM1Z-8" target="hQBVEZxTqYiChy97dM1Z-10">
          <mxGeometry relative="1" as="geometry" />
        </mxCell>
        <mxCell id="hQBVEZxTqYiChy97dM1Z-10" value="insert queue to database, send paper files to external API" style="whiteSpace=wrap;html=1;" vertex="1" parent="77e6c97f196da883-3">
          <mxGeometry x="20" y="210" width="120" height="50" as="geometry" />
        </mxCell>
        <mxCell id="hQBVEZxTqYiChy97dM1Z-32" value="Insert to database, and serve results to view" style="whiteSpace=wrap;html=1;" vertex="1" parent="77e6c97f196da883-3">
          <mxGeometry x="20" y="370" width="120" height="60" as="geometry" />
        </mxCell>
        <mxCell id="hQBVEZxTqYiChy97dM1Z-2" value="External API" style="swimlane;html=1;startSize=20;" vertex="1" parent="77e6c97f196da883-1">
          <mxGeometry x="380" y="20" width="180" height="520" as="geometry" />
        </mxCell>
        <mxCell id="hQBVEZxTqYiChy97dM1Z-15" value="process all paper that has been sent" style="whiteSpace=wrap;html=1;" vertex="1" parent="hQBVEZxTqYiChy97dM1Z-2">
          <mxGeometry x="30" y="205" width="120" height="60" as="geometry" />
        </mxCell>
        <mxCell id="hQBVEZxTqYiChy97dM1Z-18" value="" style="edgeStyle=orthogonalEdgeStyle;rounded=0;orthogonalLoop=1;jettySize=auto;html=1;" edge="1" parent="hQBVEZxTqYiChy97dM1Z-2" source="hQBVEZxTqYiChy97dM1Z-15" target="hQBVEZxTqYiChy97dM1Z-17">
          <mxGeometry relative="1" as="geometry" />
        </mxCell>
        <mxCell id="hQBVEZxTqYiChy97dM1Z-17" value="results" style="shape=parallelogram;perimeter=parallelogramPerimeter;whiteSpace=wrap;html=1;fixedSize=1;" vertex="1" parent="hQBVEZxTqYiChy97dM1Z-2">
          <mxGeometry x="30" y="290" width="120" height="30" as="geometry" />
        </mxCell>
        <mxCell id="hQBVEZxTqYiChy97dM1Z-9" value="" style="edgeStyle=orthogonalEdgeStyle;rounded=0;orthogonalLoop=1;jettySize=auto;html=1;" edge="1" parent="77e6c97f196da883-1" source="hQBVEZxTqYiChy97dM1Z-4" target="hQBVEZxTqYiChy97dM1Z-8">
          <mxGeometry relative="1" as="geometry" />
        </mxCell>
        <mxCell id="hQBVEZxTqYiChy97dM1Z-12" value="Administrator" style="swimlane;html=1;startSize=20;" vertex="1" parent="77e6c97f196da883-1">
          <mxGeometry x="560" y="20" width="170" height="520" as="geometry" />
        </mxCell>
        <mxCell id="hQBVEZxTqYiChy97dM1Z-23" value="screening" style="whiteSpace=wrap;html=1;" vertex="1" parent="hQBVEZxTqYiChy97dM1Z-12">
          <mxGeometry x="25" y="292.5" width="120" height="25" as="geometry" />
        </mxCell>
        <mxCell id="hQBVEZxTqYiChy97dM1Z-26" value="" style="edgeStyle=orthogonalEdgeStyle;rounded=0;orthogonalLoop=1;jettySize=auto;html=1;" edge="1" parent="hQBVEZxTqYiChy97dM1Z-12" source="hQBVEZxTqYiChy97dM1Z-23" target="hQBVEZxTqYiChy97dM1Z-25">
          <mxGeometry relative="1" as="geometry" />
        </mxCell>
        <mxCell id="hQBVEZxTqYiChy97dM1Z-25" value="is any error happen?" style="rhombus;whiteSpace=wrap;html=1;" vertex="1" parent="hQBVEZxTqYiChy97dM1Z-12">
          <mxGeometry x="45" y="360" width="80" height="80" as="geometry" />
        </mxCell>
        <mxCell id="hQBVEZxTqYiChy97dM1Z-16" value="" style="edgeStyle=orthogonalEdgeStyle;rounded=0;orthogonalLoop=1;jettySize=auto;html=1;" edge="1" parent="77e6c97f196da883-1" source="hQBVEZxTqYiChy97dM1Z-10" target="hQBVEZxTqYiChy97dM1Z-15">
          <mxGeometry relative="1" as="geometry" />
        </mxCell>
        <mxCell id="hQBVEZxTqYiChy97dM1Z-24" value="" style="edgeStyle=orthogonalEdgeStyle;rounded=0;orthogonalLoop=1;jettySize=auto;html=1;exitX=1;exitY=0.5;exitDx=0;exitDy=0;entryX=0;entryY=0.5;entryDx=0;entryDy=0;" edge="1" parent="77e6c97f196da883-1" source="hQBVEZxTqYiChy97dM1Z-17" target="hQBVEZxTqYiChy97dM1Z-23">
          <mxGeometry relative="1" as="geometry">
            <mxPoint x="520" y="327.5" as="sourcePoint" />
            <mxPoint x="600" y="321" as="targetPoint" />
          </mxGeometry>
        </mxCell>
        <mxCell id="hQBVEZxTqYiChy97dM1Z-27" style="edgeStyle=orthogonalEdgeStyle;rounded=0;orthogonalLoop=1;jettySize=auto;html=1;entryX=0.5;entryY=0;entryDx=0;entryDy=0;" edge="1" parent="77e6c97f196da883-1" source="hQBVEZxTqYiChy97dM1Z-25" target="hQBVEZxTqYiChy97dM1Z-15">
          <mxGeometry relative="1" as="geometry">
            <Array as="points">
              <mxPoint x="720" y="420" />
              <mxPoint x="720" y="205" />
              <mxPoint x="470" y="205" />
            </Array>
          </mxGeometry>
        </mxCell>
        <mxCell id="hQBVEZxTqYiChy97dM1Z-28" value="Yes" style="edgeLabel;html=1;align=center;verticalAlign=middle;resizable=0;points=[];" vertex="1" connectable="0" parent="hQBVEZxTqYiChy97dM1Z-27">
          <mxGeometry x="-0.8651" y="17" relative="1" as="geometry">
            <mxPoint x="17" y="-17" as="offset" />
          </mxGeometry>
        </mxCell>
        <mxCell id="hQBVEZxTqYiChy97dM1Z-30" value="" style="edgeStyle=orthogonalEdgeStyle;rounded=0;orthogonalLoop=1;jettySize=auto;html=1;entryX=1;entryY=0.5;entryDx=0;entryDy=0;" edge="1" parent="77e6c97f196da883-1" source="hQBVEZxTqYiChy97dM1Z-25" target="hQBVEZxTqYiChy97dM1Z-32">
          <mxGeometry relative="1" as="geometry">
            <mxPoint x="350" y="420" as="targetPoint" />
          </mxGeometry>
        </mxCell>
        <mxCell id="hQBVEZxTqYiChy97dM1Z-31" value="No" style="edgeLabel;html=1;align=center;verticalAlign=middle;resizable=0;points=[];" vertex="1" connectable="0" parent="hQBVEZxTqYiChy97dM1Z-30">
          <mxGeometry x="-0.4871" relative="1" as="geometry">
            <mxPoint as="offset" />
          </mxGeometry>
        </mxCell>
        <mxCell id="hQBVEZxTqYiChy97dM1Z-34" style="edgeStyle=orthogonalEdgeStyle;rounded=0;orthogonalLoop=1;jettySize=auto;html=1;entryX=1;entryY=0.5;entryDx=0;entryDy=0;" edge="1" parent="77e6c97f196da883-1" source="hQBVEZxTqYiChy97dM1Z-32" target="hQBVEZxTqYiChy97dM1Z-29">
          <mxGeometry relative="1" as="geometry" />
        </mxCell>
        <mxCell id="hQBVEZxTqYiChy97dM1Z-35" value="finish" style="ellipse;whiteSpace=wrap;html=1;" vertex="1" parent="1">
          <mxGeometry x="120" y="530" width="120" height="30" as="geometry" />
        </mxCell>
        <mxCell id="hQBVEZxTqYiChy97dM1Z-36" value="" style="edgeStyle=orthogonalEdgeStyle;rounded=0;orthogonalLoop=1;jettySize=auto;html=1;" edge="1" parent="1" source="hQBVEZxTqYiChy97dM1Z-29" target="hQBVEZxTqYiChy97dM1Z-35">
          <mxGeometry relative="1" as="geometry" />
        </mxCell>
      </root>
    </mxGraphModel>
  </diagram>
</mxfile>
